<svg xmlns="http://www.w3.org/2000/svg" viewBox="0 0 512 512" width="512" height="512">
  <defs>
    <linearGradient id="poopGrad" x1="0%" y1="0%" x2="0%" y2="100%">
      <stop offset="0%" style="stop-color:#8B6914"/>
      <stop offset="50%" style="stop-color:#6B4F0F"/>
      <stop offset="100%" style="stop-color:#4A3409"/>
    </linearGradient>
    <linearGradient id="bgGrad" x1="0%" y1="0%" x2="100%" y2="100%">
      <stop offset="0%" style="stop-color:#F59E0B"/>
      <stop offset="100%" style="stop-color:#D97706"/>
    </linearGradient>
  </defs>
  <!-- Background -->
  <rect width="512" height="512" rx="115" fill="url(#bgGrad)"/>
  <!-- Poop body -->
  <ellipse cx="256" cy="380" rx="120" ry="60" fill="url(#poopGrad)"/>
  <ellipse cx="256" cy="310" rx="100" ry="50" fill="url(#poopGrad)"/>
  <ellipse cx="256" cy="250" rx="80" ry="40" fill="url(#poopGrad)"/>
  <ellipse cx="256" cy="200" rx="55" ry="30" fill="url(#poopGrad)"/>
  <!-- Swirl top -->
  <path d="M256 130 Q280 140 275 165 Q270 190 256 185 Q242 180 240 160 Q238 140 256 130" fill="url(#poopGrad)"/>
  <!-- Eyes -->
  <ellipse cx="220" cy="290" rx="18" ry="22" fill="white"/>
  <ellipse cx="292" cy="290" rx="18" ry="22" fill="white"/>
  <ellipse cx="223" cy="293" rx="10" ry="12" fill="#1a1a1a"/>
  <ellipse cx="295" cy="293" rx="10" ry="12" fill="#1a1a1a"/>
  <!-- Eye shine -->
  <ellipse cx="227" cy="288" rx="4" ry="5" fill="white"/>
  <ellipse cx="299" cy="288" rx="4" ry="5" fill="white"/>
  <!-- Smile -->
  <path d="M230 340 Q256 370 282 340" stroke="#1a1a1a" stroke-width="6" fill="none" stroke-linecap="round"/>
  <!-- Cheeks -->
  <ellipse cx="195" cy="330" rx="15" ry="10" fill="#E8A87C" opacity="0.5"/>
  <ellipse cx="317" cy="330" rx="15" ry="10" fill="#E8A87C" opacity="0.5"/>
</svg>
